<?xml version="1.0" standalone="no"?> <!DOCTYPE svg PUBLIC "-//W3C//DTD SVG 20010904//EN" "http://www.w3.org/TR/2001/REC-SVG-20010904/DTD/svg10.dtd"> <svg version="1.0" xmlns="http://www.w3.org/2000/svg" width="600.000000pt" height="400.000000pt" viewBox="0 0 600.000000 400.000000" preserveAspectRatio="xMidYMid meet"> <g transform="translate(0.000000,400.000000) scale(0.100000,-0.100000)" fill="#ffffff" stroke="none"> <path d="M2890 3700 c-669 -68 -1217 -551 -1335 -1175 -20 -102 -23 -345 -6 -385 8 -19 10 -8 5 50 -26 342 200 827 508 1087 603 511 1449 477 1966 -78 297 -319 444 -793 366 -1179 -12 -61 7 -25 27 52 26 96 36 306 20 418 -44 301 -227 640 -452 840 -157 140 -320 234 -516 300 -189 63 -401 88 -583 70z m87 -26 c-3 -3 -12 -4 -19 -1 -8 3 -5 6 6 6 11 1 17 -2 13 -5z m130 0 c-3 -3 -12 -4 -19 -1 -8 3 -5 6 6 6 11 1 17 -2 13 -5z m-257 -8 c0 -2 -7 -6 -15 -10 -8 -3 -15 -1 -15 4 0 6 7 10 15 10 8 0 15 -2 15 -4z m37 -2 c-3 -3 -12 -4 -19 -1 -8 3 -5 6 6 6 11 1 17 -2 13 -5z m359 -12 c-16 -2 -32 0 -37 5 -5 5 7 7 29 4 34 -5 35 -6 8 -9z m-509 -8 c-3 -3 -12 -4 -19 -1 -8 3 -5 6 6 6 11 1 17 -2 13 -5z m570 0 c-3 -3 -12 -4 -19 -1 -8 3 -5 6 6 6 11 1 17 -2 13 -5z m83 -14 c12 -8 12 -10 -5 -10 -11 0 -27 5 -35 10 -12 8 -12 10 5 10 11 0 27 -5 35 -10z m54 -19 c4 -5 -3 -7 -14 -4 -23 6 -26 13 -6 13 8 0 17 -4 20 -9z m-875 -15 c-2 -2 -15 -7 -29 -10 l-25 -7 25 15 c21 12 42 14 29 2z m941 -6 c0 -10 -38 -1 -45 10 -2 4 7 5 20 2 14 -2 25 -8 25 -12z m-1001 -14 c-2 -2 -29 -14 -59 -25 -53 -21 -54 -21 -30 -2 14 11 36 22 50 24 14 2 29 5 34 6 5 0 7 -1 5 -3z m1143 -47 c160 -81 352 -234 462 -369 52 -64 127 -180 116 -180 -5 0 -10 4 -10 9 0 14 -126 180 -180 237 -27 28 -75 73 -107 100 -32 27 -60 52 -63 55 -16 17 -184 120 -232 142 -32 14 -58 28 -58 31 0 10 9 7 72 -25z m-1267 1 c-3 -5 -16 -15 -28 -21 -21 -10 -21 -9 2 10 25 23 36 27 26 11z m-75 -40 c0 -5 -10 -15 -22 -21 -23 -12 -23 -12 -4 10 21 23 26 26 26 11z m-50 -28 c0 -4 -15 -16 -32 -26 l-33 -17 30 25 c33 29 35 30 35 18z m-75 -52 c-3 -5 -16 -15 -28 -21 -21 -10 -21 -9 2 10 25 23 36 27 26 11z m-60 -49 c-3 -6 -10 -9 -15 -6 -4 3 -10 -1 -13 -9 -3 -7 -20 -24 -38 -36 -46 -33 -32 -9 20 34 41 34 62 42 46 17z m-173 -153 c-39 -40 -88 -94 -108 -120 -47 -61 -55 -62 -12 -2 43 60 168 194 181 194 5 0 -22 -33 -61 -72z m-152 -182 c0 -2 -8 -10 -17 -17 -16 -13 -17 -12 -4 4 13 16 21 21 21 13z"/> <path d="M3298 3251 c-119 -38 -223 -130 -278 -247 -44 -92 -54 -157 -41 -278 11 -101 5 -195 -18 -274 -14 -47 -73 -172 -81 -172 -8 0 -29 71 -60 199 -23 99 -71 188 -136 256 -26 28 -69 82 -95 121 -56 82 -120 144 -150 144 -24 0 -49 -52 -49 -105 l0 -35 -42 30 c-27 20 -52 30 -68 28 -25 -3 -25 -5 -25 -88 l-1 -85 -51 -51 c-51 -51 -83 -121 -83 -179 0 -12 -15 -41 -32 -65 -18 -24 -37 -48 -42 -55 -27 -36 42 -165 106 -197 20 -11 62 -22 93 -25 95 -10 106 -53 53 -212 -27 -82 -31 -110 -31 -196 0 -213 86 -339 325 -476 62 -35 124 -74 139 -86 15 -13 30 -23 35 -23 17 0 -57 66 -169 152 -131 101 -193 166 -230 242 -56 117 -60 225 -11 376 59 182 18 280 -116 280 -119 0 -178 118 -102 204 19 22 32 48 32 64 0 92 76 188 181 230 62 26 76 46 85 121 11 96 10 95 48 53 18 -20 51 -64 72 -97 22 -33 60 -81 85 -106 64 -66 105 -149 134 -275 15 -60 35 -128 46 -153 10 -24 19 -45 19 -47 0 -2 -36 -44 -79 -93 -134 -152 -182 -236 -200 -348 -19 -123 21 -256 109 -353 l40 -45 -41 77 c-103 196 -77 393 77 568 31 36 74 85 95 109 l39 44 19 -24 c24 -31 99 -81 231 -154 184 -102 268 -214 278 -367 2 -44 0 -90 -7 -109 -14 -41 -7 -49 12 -12 75 145 10 354 -145 470 -29 21 -100 65 -157 97 -108 60 -176 108 -185 132 -3 7 14 51 38 98 53 104 76 192 76 292 l0 77 28 -39 c16 -21 52 -60 81 -86 85 -77 156 -84 211 -22 41 47 64 131 58 213 -6 79 -49 281 -61 281 -4 0 -6 -89 -5 -197 3 -175 1 -202 -15 -231 -28 -52 -57 -60 -110 -29 -75 44 -167 161 -188 240 -19 73 47 226 128 298 205 180 547 98 603 -144 20 -87 44 -113 149 -164 68 -33 90 -48 82 -56 -17 -17 -13 -38 9 -62 l20 -22 -28 -54 c-17 -33 -44 -65 -70 -83 -40 -28 -49 -30 -172 -36 -109 -4 -133 -9 -156 -26 -54 -40 -69 -70 -69 -138 0 -59 5 -74 72 -207 80 -160 92 -200 93 -309 0 -214 -134 -442 -310 -528 -73 -36 -154 -54 -203 -46 -52 9 -127 35 -127 44 0 4 21 25 46 46 55 44 129 141 156 203 24 57 26 147 3 195 -42 88 -159 113 -234 51 -21 -19 -30 -22 -34 -12 -8 21 -71 47 -115 47 -52 0 -101 -34 -130 -90 -45 -88 -14 -207 86 -327 28 -33 68 -74 90 -89 l38 -27 -83 -80 c-52 -50 -91 -97 -105 -128 -13 -26 -25 -48 -28 -49 -3 0 -14 14 -23 30 -41 69 -228 191 -337 220 -65 17 -125 50 -216 118 -45 33 -90 65 -101 71 -27 14 -58 82 -89 194 -50 185 -54 195 -85 221 -57 49 -133 29 -159 -40 -15 -38 -13 -125 2 -122 7 2 14 -8 16 -22 l3 -25 -20 25 c-11 14 -32 57 -47 97 -24 64 -25 76 -15 123 15 70 26 87 69 109 79 40 152 152 152 233 0 24 -4 23 -80 -15 -73 -36 -125 -100 -135 -165 -7 -41 -36 -143 -45 -154 -7 -10 -15 101 -14 202 1 119 24 190 71 226 85 64 131 134 152 232 12 56 15 112 6 112 -19 0 -95 -48 -134 -85 -64 -60 -93 -121 -98 -209 -2 -39 -12 -100 -20 -136 -22 -89 -21 -255 2 -345 19 -76 70 -187 110 -239 14 -18 25 -42 25 -54 0 -11 4 -32 10 -46 17 -47 -4 -26 -40 37 -76 134 -151 188 -218 153 -35 -18 -42 -33 -42 -93 0 -145 209 -539 383 -719 100 -105 184 -163 377 -259 173 -87 240 -127 299 -181 75 -67 42 -12 -41 70 -72 70 -103 91 -233 160 -235 124 -319 188 -425 321 -134 169 -310 518 -310 616 0 36 27 52 60 36 13 -7 69 -78 125 -159 108 -158 235 -318 298 -375 22 -19 90 -68 152 -108 62 -41 116 -78 120 -84 3 -6 10 -11 16 -11 24 0 -51 85 -124 142 -111 86 -203 174 -217 208 -18 44 -9 83 22 98 36 17 69 3 173 -75 108 -80 156 -106 250 -138 109 -37 202 -93 279 -170 53 -53 77 -89 136 -206 62 -123 143 -239 157 -225 2 2 -9 28 -26 57 -16 30 -44 89 -61 132 -17 43 -40 97 -51 119 -20 39 -20 42 -4 85 21 56 77 126 147 186 l55 47 59 -27 c261 -119 585 98 674 451 38 151 21 274 -58 431 -25 50 -54 108 -65 130 -25 49 -33 125 -18 154 24 44 56 54 174 56 95 0 119 4 160 24 61 29 110 90 142 175 46 123 36 143 -109 211 -50 23 -99 52 -109 63 -10 11 -25 46 -33 79 -36 137 -132 230 -279 269 -70 19 -179 16 -247 -5z m417 -119 c-3 -3 -16 5 -28 17 l-22 23 28 -17 c15 -10 25 -20 22 -23z m-572 -7 c-3 -9 -8 -14 -10 -11 -3 3 -2 9 2 15 9 16 15 13 8 -4z m-23 -29 c0 -2 -8 -10 -17 -17 -16 -13 -17 -12 -4 4 13 16 21 21 21 13z m-656 -135 c3 -5 -5 -11 -19 -13 -26 -5 -35 6 -12 15 19 8 25 8 31 -2z m1379 -71 c9 -11 13 -20 7 -20 -5 0 -14 9 -20 20 -6 11 -9 20 -8 20 2 0 11 -9 21 -20z m-1527 -12 c4 -7 4 -10 -1 -6 -4 4 -16 3 -26 -3 -15 -7 -17 -6 -13 6 7 18 30 20 40 3z m42 -89 c-7 -4 -23 -10 -35 -13 -22 -7 -23 -4 -23 40 l0 48 35 -34 c25 -24 31 -36 23 -41z m52 35 c0 -29 -18 -41 -27 -17 -4 10 -13 23 -21 29 -12 8 -8 11 17 11 26 0 31 -4 31 -23z m600 -19 c-1 -3 12 -30 29 -60 33 -59 37 -70 21 -60 -6 4 -18 1 -26 -6 -8 -6 -16 -10 -18 -8 -7 8 -18 154 -11 147 4 -3 6 -9 5 -13z m-396 -31 c3 -8 2 -12 -4 -9 -6 3 -10 10 -10 16 0 14 7 11 14 -7z m1448 -16 c11 -17 12 -32 6 -57 -9 -32 -10 -33 -29 -15 -21 19 -25 49 -9 59 8 5 7 11 -1 21 -9 11 -8 14 4 14 8 0 21 -10 29 -22z m-1762 -28 c-23 -15 -28 -12 -22 16 4 24 6 24 21 9 14 -14 14 -17 1 -25z m361 -7 c13 -16 12 -17 -3 -4 -10 7 -18 15 -18 17 0 8 8 3 21 -13z m439 -63 c0 -5 -2 -10 -4 -10 -3 0 -8 5 -11 10 -3 6 -1 10 4 10 6 0 11 -4 11 -10z m-1276 -62 c-4 -29 -16 -72 -26 -96 -19 -42 -120 -152 -140 -152 -7 0 -9 24 -6 64 7 92 49 157 138 218 38 26 41 22 34 -34z m1193 30 c-3 -8 -6 -5 -6 6 -1 11 2 17 5 13 3 -3 4 -12 1 -19z m133 -23 c7 -8 8 -15 2 -15 -5 0 -15 7 -22 15 -7 8 -8 15 -2 15 5 0 15 -7 22 -15z m65 -55 c3 -5 2 -10 -4 -10 -5 0 -13 5 -16 10 -3 6 -2 10 4 10 5 0 13 -4 16 -10z m-208 -42 c-3 -8 -6 -5 -6 6 -1 11 2 17 5 13 3 -3 4 -12 1 -19z m-112 -239 c3 6 11 11 17 11 6 0 4 -8 -5 -18 -22 -24 -21 -28 5 -65 20 -29 20 -31 2 -14 -11 9 -27 17 -34 17 -7 0 -23 -8 -34 -17 -21 -18 -21 -18 -5 2 26 31 31 61 14 75 -24 20 -17 32 9 15 16 -11 26 -13 31 -6z m-1030 -49 c4 -6 1 -17 -5 -25 -7 -8 -10 -15 -6 -15 9 0 -23 -60 -42 -80 -28 -28 -76 -60 -90 -60 -11 0 -13 8 -8 33 10 54 37 93 85 125 51 35 57 36 66 22z m1165 -126 c0 -2 -9 0 -20 6 -11 6 -20 13 -20 16 0 2 9 0 20 -6 11 -6 20 -13 20 -16z m164 -93 c-2 -3 -12 3 -22 13 -16 17 -16 18 5 5 12 -7 20 -15 17 -18z m-1322 -182 c11 -14 33 -79 49 -144 17 -65 37 -131 45 -146 18 -36 19 -36 -14 -42 -34 -7 -79 -50 -85 -80 -3 -18 -8 -13 -25 26 -49 108 -76 361 -43 401 19 23 50 17 73 -15z m1066 -76 c18 -10 41 -31 51 -46 l18 -29 23 32 c28 39 82 63 121 55 79 -18 103 -123 52 -225 -26 -53 -175 -220 -196 -220 -23 0 -165 158 -193 215 -49 100 -35 186 37 222 32 17 49 16 87 -4z m-1157 -205 c2 -23 5 -33 17 -61 16 -39 15 -52 -3 -37 -8 7 -15 18 -15 24 0 7 -11 23 -25 36 -30 28 -31 37 -7 43 29 8 32 7 33 -5z m256 -84 c-1 -1 -16 1 -34 3 -30 5 -30 6 -15 24 16 19 17 19 34 -3 9 -13 16 -23 15 -24z m369 14 l29 -33 -32 29 c-31 28 -38 36 -30 36 2 0 16 -15 33 -32z m-514 -113 c3 -14 2 -25 -2 -25 -14 0 -32 29 -25 40 11 17 22 11 27 -15z m1145 -69 c-7 -14 -14 -23 -16 -21 -2 3 -12 0 -21 -5 -14 -8 -19 -5 -22 15 -6 28 -4 29 22 15 13 -7 21 -6 30 5 18 21 20 19 7 -9z m-386 -193 c13 -16 12 -17 -3 -4 -10 7 -18 15 -18 17 0 8 8 3 21 -13z m64 -63 c3 -5 1 -10 -4 -10 -6 0 -11 5 -11 10 0 6 2 10 4 10 3 0 8 -4 11 -10z m55 -46 c0 -17 -22 -14 -28 4 -2 7 3 12 12 12 9 0 16 -7 16 -16z m-845 -74 c3 -6 -1 -7 -9 -4 -18 7 -21 14 -7 14 6 0 13 -4 16 -10z"/> <path d="M3656 2878 c-14 -16 -27 -19 -57 -15 -45 6 -51 -4 -14 -21 52 -24 105 -3 105 41 0 22 -10 20 -34 -5z"/> <path d="M2220 2451 c0 -18 31 -41 55 -41 12 0 33 9 46 20 l24 20 -41 -6 c-26 -4 -44 -2 -48 5 -9 13 -36 15 -36 2z"/> <path d="M4176 2411 c-12 -94 19 -176 94 -243 l40 -37 0 -89 c0 -96 -9 -182 -19 -182 -7 0 -23 45 -46 123 -25 88 -78 145 -163 177 -63 24 -72 25 -72 5 0 -30 43 -128 71 -159 16 -18 56 -45 89 -60 47 -21 63 -34 74 -60 23 -55 27 -91 15 -122 -7 -16 -11 -36 -10 -45 1 -9 -5 -22 -14 -29 -13 -10 -15 -9 -15 9 0 12 7 32 16 46 20 31 10 86 -23 126 -19 23 -33 29 -63 29 -63 0 -95 -36 -126 -138 -52 -175 -63 -208 -84 -254 -11 -27 -25 -48 -29 -48 -4 0 -46 -28 -92 -63 -111 -84 -141 -100 -224 -127 -125 -40 -203 -87 -296 -180 -83 -83 -89 -92 -177 -270 -68 -138 -104 -200 -144 -244 -63 -71 -153 -132 -208 -141 -22 -4 -40 -10 -40 -14 0 -16 106 9 167 39 105 52 177 140 274 338 77 157 87 172 163 247 85 85 173 139 272 168 76 22 138 57 245 136 53 39 108 75 123 80 55 22 97 -22 82 -85 -9 -35 -84 -114 -183 -191 -79 -61 -163 -146 -163 -164 0 -14 240 150 292 199 72 67 227 263 312 394 76 119 110 153 139 142 40 -15 29 -80 -40 -242 -87 -206 -203 -390 -318 -507 -85 -86 -150 -131 -325 -225 -74 -39 -158 -89 -186 -110 -47 -36 -144 -139 -144 -154 0 -3 25 14 54 38 66 54 150 103 316 186 206 103 309 185 420 331 136 180 278 473 296 608 11 81 -23 131 -87 131 -52 0 -114 -64 -194 -203 -15 -26 -29 -46 -31 -44 -7 7 31 115 68 192 68 143 78 221 59 467 -10 122 -31 171 -97 224 -61 48 -61 48 -68 -5z m96 -64 c38 -53 57 -167 28 -167 -12 0 -58 49 -75 80 -16 32 -29 114 -21 136 6 15 8 15 27 -2 12 -11 30 -32 41 -47z m-161 -234 c8 -7 20 -13 26 -13 28 0 97 -120 79 -137 -27 -27 -146 79 -163 145 l-10 40 26 -11 c14 -6 33 -17 42 -24z m61 -280 c36 -33 18 -224 -39 -397 l-16 -49 -12 30 c-16 37 -60 73 -91 73 l-23 0 19 43 c10 23 33 94 50 157 29 107 57 160 83 160 6 0 19 -7 29 -17z m58 -333 c-5 -8 -21 -29 -37 -47 -15 -17 -33 -40 -40 -50 -6 -10 -2 11 10 47 11 36 22 70 23 77 2 9 9 9 28 0 17 -8 22 -16 16 -27z m-245 -20 c6 -9 -42 -46 -50 -38 -6 5 27 48 37 48 4 0 9 -4 13 -10z m133 -111 c9 -3 3 -14 -17 -33 l-30 -29 10 37 c5 20 7 42 4 49 -4 6 -1 5 7 -4 7 -9 19 -18 26 -20z m-278 7 c0 -2 -8 -10 -17 -17 -16 -13 -17 -12 -4 4 13 16 21 21 21 13z"/> <path d="M1410 2127 c0 -84 53 -170 134 -218 37 -21 39 -22 32 -3 -5 10 -13 35 -18 54 -16 56 -53 112 -102 153 -44 37 -46 37 -46 14z m62 -64 c24 -29 61 -94 56 -99 -11 -10 -38 9 -56 39 -35 60 -35 100 0 60z"/> <path d="M4482 2017 c-29 -23 -59 -51 -67 -63 -18 -27 -55 -124 -47 -124 20 0 113 64 131 89 29 41 60 142 44 141 -5 -1 -32 -20 -61 -43z m13 -54 c-27 -43 -57 -73 -72 -73 -21 0 10 53 49 84 39 30 47 26 23 -11z"/> <path d="M3404 785 c-68 -15 -146 -51 -191 -89 -29 -25 -140 -176 -128 -176 3 0 51 30 106 66 55 36 103 64 106 61 2 -3 -8 -14 -24 -24 -15 -10 -62 -42 -103 -72 -79 -57 -183 -111 -212 -111 -10 0 -18 -4 -18 -8 0 -11 133 -3 215 14 150 30 262 118 329 255 20 42 36 81 36 88 0 14 -39 13 -116 -4z m76 -23 c0 -16 -39 -87 -72 -134 -48 -67 -113 -112 -213 -146 -32 -11 -105 -23 -105 -17 0 2 17 14 38 26 20 13 39 26 42 29 3 3 18 15 33 27 71 55 108 94 100 107 -7 12 -19 9 -65 -14 -85 -42 -75 -24 31 63 12 9 27 17 34 17 7 0 18 5 24 11 6 6 38 17 70 24 73 16 83 17 83 7z"/> <path d="M2485 734 c65 -156 161 -228 295 -222 l64 3 -60 48 c-32 26 -75 57 -94 68 -27 16 -22 9 24 -34 32 -29 55 -57 49 -60 -17 -11 -66 3 -118 32 -48 27 -117 110 -129 155 -4 17 0 18 59 13 84 -8 179 -58 206 -109 9 -17 8 -17 -23 0 -18 10 -46 23 -63 30 l-30 12 25 -18 c14 -9 59 -42 100 -74 41 -31 77 -55 78 -53 2 2 -11 31 -29 65 -58 110 -153 166 -297 177 l-74 6 17 -39z"/> </g> </svg>